ffmpeg started on 2025-05-06 at 09:18:52
Report written to "D:\Convert\FFMetrics\reports\psnr_report-6.txt"
Log level: 32
Command line:
ffmpeg -hide_banner -nostdin -i "G:\\\xc0\xed\xe8\xec\xe5\\\xce\xed\xe3\xee\xe8\xed\xe3\xe8\\!_35_\xcb\xe5\xf2\xee_2024\\JamClub\\\xc1\xe0\xf1\xed\xff\\[JAM_CLUB]_The_Fable_01_[1080p][RUS][DUB]_HEVC.mkv" -i "G:\\\xc0\xed\xe8\xec\xe5\\\xce\xed\xe3\xee\xe8\xed\xe3\xe8\\!_35_\xcb\xe5\xf2\xee_2024\\JamClub\\\xc1\xe0\xf1\xed\xff\\[JAM_CLUB]_The_Fable_01_[1080p][RUS][DUB].mp4" -lavfi "[0:v]settb=AVTB,setpts=PTS-STARTPTS,format=pix_fmts=yuv420p10,fps=24000/1001,scale=1920:1080:flags=bicubic[main];[1:v]settb=AVTB,setpts=PTS-STARTPTS,format=pix_fmts=yuv420p,fps=24000/1001,scale=1920:1080:flags=bicubic[ref];[main][ref]psnr=eof_action=endall:stats_file='D\\:/Convert/FFMetrics/logs/psnr_logfile-6.txt'" -f null -
Input #0, matroska,webm, from 'G:\Аниме\Онгоинги\!_35_Лето_2024\JamClub\Басня\[JAM_CLUB]_The_Fable_01_[1080p][RUS][DUB]_HEVC.mkv':
  Metadata:
    COMPATIBLE_BRANDS: isomiso2avc1mp41
    MAJOR_BRAND     : isom
    MINOR_VERSION   : 512
    ENCODER         : Lavf61.7.100
  Duration: 00:23:14.33, start: -0.001000, bitrate: 953 kb/s
  Stream #0:0: Video: hevc (Main 10), yuv420p10le(tv, bt709, progressive), 1920x1080 [SAR 1:1 DAR 16:9], 23.98 fps, 23.98 tbr, 1k tbn (default)
      Metadata:
        HANDLER_NAME    : VideoHandler
        VENDOR_ID       : [0][0][0][0]
        ENCODER         : Lavc61.19.100 libx265
        BPS             : 754842
        DURATION        : 00:23:14.184708333
        NUMBER_OF_FRAMES: 33427
        NUMBER_OF_BYTES : 131548725
        _STATISTICS_WRITING_APP: mkvpropedit v66.0.0 ('Josie') 64-bit
        _STATISTICS_WRITING_DATE_UTC: 2025-05-05 12:16:09
        _STATISTICS_TAGS: BPS DURATION NUMBER_OF_FRAMES NUMBER_OF_BYTES
  Stream #0:1(eng): Audio: aac (LC), 48000 Hz, stereo, fltp (default)
      Metadata:
        HANDLER_NAME    : SoundHandler
        VENDOR_ID       : [0][0][0][0]
        ENCODER         : Lavc61.19.100 aac
        BPS             : 195004
        DURATION        : 00:23:14.285000000
        NUMBER_OF_FRAMES: 65358
        NUMBER_OF_BYTES : 33986454
        _STATISTICS_WRITING_APP: mkvpropedit v66.0.0 ('Josie') 64-bit
        _STATISTICS_WRITING_DATE_UTC: 2025-05-05 12:16:09
        _STATISTICS_TAGS: BPS DURATION NUMBER_OF_FRAMES NUMBER_OF_BYTES
Input #1, mov,mp4,m4a,3gp,3g2,mj2, from 'G:\Аниме\Онгоинги\!_35_Лето_2024\JamClub\Басня\[JAM_CLUB]_The_Fable_01_[1080p][RUS][DUB].mp4':
  Metadata:
    major_brand     : isom
    minor_version   : 512
    compatible_brands: isomiso2avc1mp41
    encoder         : Lavf61.1.100
  Duration: 00:23:14.31, start: 0.000000, bitrate: 3972 kb/s
  Stream #1:0[0x1](und): Video: h264 (High) (avc1 / 0x31637661), yuv420p(progressive), 1920x1080, 3775 kb/s, 23.98 fps, 23.98 tbr, 90k tbn (default)
      Metadata:
        handler_name    : VideoHandler
        vendor_id       : [0][0][0][0]
  Stream #1:1[0x2](eng): Audio: aac (LC) (mp4a / 0x6134706D), 48000 Hz, stereo, fltp, 191 kb/s (default)
      Metadata:
        handler_name    : SoundHandler
        vendor_id       : [0][0][0][0]
Stream mapping:
  Stream #0:0 (hevc) -> settb:default
  Stream #1:0 (h264) -> settb:default
  psnr:default -> Stream #0:0 (wrapped_avframe)
  Stream #0:1 -> #0:1 (aac (native) -> pcm_s16le (native))
Output #0, null, to 'pipe:':
  Metadata:
    COMPATIBLE_BRANDS: isomiso2avc1mp41
    MAJOR_BRAND     : isom
    MINOR_VERSION   : 512
    encoder         : Lavf61.7.100
  Stream #0:0: Video: wrapped_avframe, yuv420p10le(tv, bt709, progressive), 1920x1080 [SAR 1:1 DAR 16:9], q=2-31, 200 kb/s, 23.98 fps, 23.98 tbn
      Metadata:
        encoder         : Lavc61.19.100 wrapped_avframe
  Stream #0:1(eng): Audio: pcm_s16le, 48000 Hz, stereo, s16, 1536 kb/s (default)
      Metadata:
        HANDLER_NAME    : SoundHandler
        VENDOR_ID       : [0][0][0][0]
        _STATISTICS_TAGS: BPS DURATION NUMBER_OF_FRAMES NUMBER_OF_BYTES
        BPS             : 195004
        DURATION        : 00:23:14.285000000
        NUMBER_OF_FRAMES: 65358
        NUMBER_OF_BYTES : 33986454
        _STATISTICS_WRITING_APP: mkvpropedit v66.0.0 ('Josie') 64-bit
        _STATISTICS_WRITING_DATE_UTC: 2025-05-05 12:16:09
        encoder         : Lavc61.19.100 pcm_s16le
frame=  119 fps=0.0 q=-0.0 size=N/A time=00:00:04.96 bitrate=N/A speed=9.57x    frame=  273 fps=266 q=-0.0 size=N/A time=00:00:11.38 bitrate=N/A speed=11.1x    frame=  454 fps=295 q=-0.0 size=N/A time=00:00:18.93 bitrate=N/A speed=12.3x    frame=  700 fps=340 q=-0.0 size=N/A time=00:00:29.19 bitrate=N/A speed=14.2x    frame=  931 fps=362 q=-0.0 size=N/A time=00:00:38.83 bitrate=N/A speed=15.1x    frame= 1168 fps=378 q=-0.0 size=N/A time=00:00:48.71 bitrate=N/A speed=15.8x    frame= 1374 fps=382 q=-0.0 size=N/A time=00:00:57.30 bitrate=N/A speed=15.9x    frame= 1585 fps=384 q=-0.0 size=N/A time=00:01:06.10 bitrate=N/A speed=  16x    frame= 1799 fps=387 q=-0.0 size=N/A time=00:01:15.03 bitrate=N/A speed=16.2x    frame= 2010 fps=390 q=-0.0 size=N/A time=00:01:23.83 bitrate=N/A speed=16.3x    frame= 2215 fps=390 q=-0.0 size=N/A time=00:01:32.38 bitrate=N/A speed=16.3x    frame= 2431 fps=393 q=-0.0 size=N/A time=00:01:41.39 bitrate=N/A speed=16.4x    frame= 2672 fps=398 q=-0.0 size=N/A time=00:01:51.44 bitrate=N/A speed=16.6x    frame= 2906 fps=403 q=-0.0 size=N/A time=00:02:01.20 bitrate=N/A speed=16.8x    frame= 3145 fps=406 q=-0.0 size=N/A time=00:02:11.17 bitrate=N/A speed=  17x    frame= 3357 fps=407 q=-0.0 size=N/A time=00:02:20.01 bitrate=N/A speed=  17x    frame= 3584 fps=409 q=-0.0 size=N/A time=00:02:29.48 bitrate=N/A speed=  17x    frame= 3814 fps=411 q=-0.0 size=N/A time=00:02:39.07 bitrate=N/A speed=17.1x    frame= 4039 fps=412 q=-0.0 size=N/A time=00:02:48.45 bitrate=N/A speed=17.2x    frame= 4282 fps=415 q=-0.0 size=N/A time=00:02:58.59 bitrate=N/A speed=17.3x    frame= 4517 fps=417 q=-0.0 size=N/A time=00:03:08.39 bitrate=N/A speed=17.4x    frame= 4759 fps=420 q=-0.0 size=N/A time=00:03:18.48 bitrate=N/A speed=17.5x    frame= 4976 fps=420 q=-0.0 size=N/A time=00:03:27.54 bitrate=N/A speed=17.5x    frame= 5201 fps=420 q=-0.0 size=N/A time=00:03:36.92 bitrate=N/A speed=17.5x    frame= 5456 fps=423 q=-0.0 size=N/A time=00:03:47.56 bitrate=N/A speed=17.6x    frame= 5652 fps=422 q=-0.0 size=N/A time=00:03:55.73 bitrate=N/A speed=17.6x    frame= 5852 fps=420 q=-0.0 size=N/A time=00:04:04.07 bitrate=N/A speed=17.5x    frame= 6082 fps=421 q=-0.0 size=N/A time=00:04:13.67 bitrate=N/A speed=17.6x    frame= 6332 fps=423 q=-0.0 size=N/A time=00:04:24.09 bitrate=N/A speed=17.7x    frame= 6544 fps=423 q=-0.0 size=N/A time=00:04:32.93 bitrate=N/A speed=17.7x    frame= 6751 fps=422 q=-0.0 size=N/A time=00:04:41.57 bitrate=N/A speed=17.6x    frame= 6969 fps=423 q=-0.0 size=N/A time=00:04:50.66 bitrate=N/A speed=17.6x    frame= 7230 fps=425 q=-0.0 size=N/A time=00:05:01.55 bitrate=N/A speed=17.7x    frame= 7477 fps=427 q=-0.0 size=N/A time=00:05:11.85 bitrate=N/A speed=17.8x    frame= 7731 fps=428 q=-0.0 size=N/A time=00:05:22.44 bitrate=N/A speed=17.9x    frame= 7977 fps=430 q=-0.0 size=N/A time=00:05:32.70 bitrate=N/A speed=17.9x    frame= 8220 fps=431 q=-0.0 size=N/A time=00:05:42.84 bitrate=N/A speed=  18x    frame= 8398 fps=429 q=-0.0 size=N/A time=00:05:50.26 bitrate=N/A speed=17.9x    frame= 8656 fps=430 q=-0.0 size=N/A time=00:06:01.02 bitrate=N/A speed=  18x    frame= 8932 fps=433 q=-0.0 size=N/A time=00:06:12.53 bitrate=N/A speed=18.1x    frame= 9135 fps=432 q=-0.0 size=N/A time=00:06:21.00 bitrate=N/A speed=  18x    frame= 9299 fps=429 q=-0.0 size=N/A time=00:06:27.84 bitrate=N/A speed=17.9x    frame= 9461 fps=427 q=-0.0 size=N/A time=00:06:34.60 bitrate=N/A speed=17.8x    frame= 9667 fps=426 q=-0.0 size=N/A time=00:06:43.19 bitrate=N/A speed=17.8x    frame= 9930 fps=428 q=-0.0 size=N/A time=00:06:54.16 bitrate=N/A speed=17.9x    frame=10180 fps=429 q=-0.0 size=N/A time=00:07:04.59 bitrate=N/A speed=17.9x    frame=10449 fps=431 q=-0.0 size=N/A time=00:07:15.81 bitrate=N/A speed=  18x    frame=10732 fps=434 q=-0.0 size=N/A time=00:07:27.61 bitrate=N/A speed=18.1x    frame=10993 fps=435 q=-0.0 size=N/A time=00:07:38.49 bitrate=N/A speed=18.2x    frame=11264 fps=437 q=-0.0 size=N/A time=00:07:49.80 bitrate=N/A speed=18.2x    frame=11526 fps=438 q=-0.0 size=N/A time=00:08:00.73 bitrate=N/A speed=18.3x    frame=11786 fps=440 q=-0.0 size=N/A time=00:08:11.57 bitrate=N/A speed=18.3x    frame=12024 fps=440 q=-0.0 size=N/A time=00:08:21.50 bitrate=N/A speed=18.4x    frame=12293 fps=442 q=-0.0 size=N/A time=00:08:32.72 bitrate=N/A speed=18.4x    frame=12564 fps=443 q=-0.0 size=N/A time=00:08:44.02 bitrate=N/A speed=18.5x    frame=12832 fps=445 q=-0.0 size=N/A time=00:08:55.20 bitrate=N/A speed=18.5x    frame=13081 fps=445 q=-0.0 size=N/A time=00:09:05.58 bitrate=N/A speed=18.6x    frame=13334 fps=446 q=-0.0 size=N/A time=00:09:16.13 bitrate=N/A speed=18.6x    frame=13607 fps=447 q=-0.0 size=N/A time=00:09:27.52 bitrate=N/A speed=18.7x    frame=13873 fps=449 q=-0.0 size=N/A time=00:09:38.61 bitrate=N/A speed=18.7x    frame=14141 fps=450 q=-0.0 size=N/A time=00:09:49.79 bitrate=N/A speed=18.8x    frame=14413 fps=451 q=-0.0 size=N/A time=00:10:01.14 bitrate=N/A speed=18.8x    frame=14678 fps=452 q=-0.0 size=N/A time=00:10:12.19 bitrate=N/A speed=18.8x    frame=14941 fps=453 q=-0.0 size=N/A time=00:10:23.16 bitrate=N/A speed=18.9x    frame=15172 fps=453 q=-0.0 size=N/A time=00:10:32.79 bitrate=N/A speed=18.9x    frame=15426 fps=453 q=-0.0 size=N/A time=00:10:43.39 bitrate=N/A speed=18.9x    frame=15697 fps=454 q=-0.0 size=N/A time=00:10:54.69 bitrate=N/A speed=  19x    frame=15954 fps=455 q=-0.0 size=N/A time=00:11:05.41 bitrate=N/A speed=  19x    frame=16205 fps=456 q=-0.0 size=N/A time=00:11:15.88 bitrate=N/A speed=  19x    frame=16478 fps=457 q=-0.0 size=N/A time=00:11:27.26 bitrate=N/A speed=  19x    frame=16721 fps=457 q=-0.0 size=N/A time=00:11:37.40 bitrate=N/A speed=19.1x    frame=16972 fps=457 q=-0.0 size=N/A time=00:11:47.87 bitrate=N/A speed=19.1x    frame=17223 fps=458 q=-0.0 size=N/A time=00:11:58.34 bitrate=N/A speed=19.1x    frame=17468 fps=458 q=-0.0 size=N/A time=00:12:08.56 bitrate=N/A speed=19.1x    frame=17708 fps=458 q=-0.0 size=N/A time=00:12:18.57 bitrate=N/A speed=19.1x    frame=17960 fps=458 q=-0.0 size=N/A time=00:12:29.08 bitrate=N/A speed=19.1x    frame=18193 fps=458 q=-0.0 size=N/A time=00:12:38.79 bitrate=N/A speed=19.1x    frame=18438 fps=459 q=-0.0 size=N/A time=00:12:49.01 bitrate=N/A speed=19.1x    frame=18695 fps=459 q=-0.0 size=N/A time=00:12:59.73 bitrate=N/A speed=19.1x    frame=18953 fps=459 q=-0.0 size=N/A time=00:13:10.49 bitrate=N/A speed=19.2x    frame=19213 fps=460 q=-0.0 size=N/A time=00:13:21.34 bitrate=N/A speed=19.2x    frame=19460 fps=460 q=-0.0 size=N/A time=00:13:31.64 bitrate=N/A speed=19.2x    frame=19705 fps=460 q=-0.0 size=N/A time=00:13:41.86 bitrate=N/A speed=19.2x    frame=19953 fps=460 q=-0.0 size=N/A time=00:13:52.20 bitrate=N/A speed=19.2x    frame=20208 fps=461 q=-0.0 size=N/A time=00:14:02.84 bitrate=N/A speed=19.2x    frame=20461 fps=461 q=-0.0 size=N/A time=00:14:13.39 bitrate=N/A speed=19.2x    frame=20714 fps=462 q=-0.0 size=N/A time=00:14:23.94 bitrate=N/A speed=19.2x    frame=20991 fps=462 q=-0.0 size=N/A time=00:14:35.49 bitrate=N/A speed=19.3x    frame=21262 fps=463 q=-0.0 size=N/A time=00:14:46.80 bitrate=N/A speed=19.3x    frame=21526 fps=464 q=-0.0 size=N/A time=00:14:57.81 bitrate=N/A speed=19.3x    frame=21790 fps=464 q=-0.0 size=N/A time=00:15:08.82 bitrate=N/A speed=19.4x    frame=22047 fps=465 q=-0.0 size=N/A time=00:15:19.54 bitrate=N/A speed=19.4x    frame=22306 fps=465 q=-0.0 size=N/A time=00:15:30.34 bitrate=N/A speed=19.4x    frame=22580 fps=466 q=-0.0 size=N/A time=00:15:41.77 bitrate=N/A speed=19.4x    frame=22834 fps=466 q=-0.0 size=N/A time=00:15:52.36 bitrate=N/A speed=19.4x    frame=23107 fps=466 q=-0.0 size=N/A time=00:16:03.75 bitrate=N/A speed=19.5x    frame=23385 fps=467 q=-0.0 size=N/A time=00:16:15.34 bitrate=N/A speed=19.5x    frame=23655 fps=468 q=-0.0 size=N/A time=00:16:26.61 bitrate=N/A speed=19.5x    frame=23929 fps=468 q=-0.0 size=N/A time=00:16:38.03 bitrate=N/A speed=19.5x    frame=24197 fps=469 q=-0.0 size=N/A time=00:16:49.21 bitrate=N/A speed=19.6x    frame=24475 fps=470 q=-0.0 size=N/A time=00:17:00.81 bitrate=N/A speed=19.6x    frame=24746 fps=470 q=-0.0 size=N/A time=00:17:12.11 bitrate=N/A speed=19.6x    frame=24964 fps=470 q=-0.0 size=N/A time=00:17:21.20 bitrate=N/A speed=19.6x    frame=25208 fps=470 q=-0.0 size=N/A time=00:17:31.38 bitrate=N/A speed=19.6x    frame=25479 fps=470 q=-0.0 size=N/A time=00:17:42.72 bitrate=N/A speed=19.6x    frame=25751 fps=471 q=-0.0 size=N/A time=00:17:54.03 bitrate=N/A speed=19.6x    frame=26016 fps=471 q=-0.0 size=N/A time=00:18:05.08 bitrate=N/A speed=19.7x    frame=26274 fps=471 q=-0.0 size=N/A time=00:18:15.84 bitrate=N/A speed=19.7x    frame=26550 fps=472 q=-0.0 size=N/A time=00:18:27.35 bitrate=N/A speed=19.7x    frame=26820 fps=473 q=-0.0 size=N/A time=00:18:38.61 bitrate=N/A speed=19.7x    frame=27087 fps=473 q=-0.0 size=N/A time=00:18:49.75 bitrate=N/A speed=19.7x    frame=27343 fps=473 q=-0.0 size=N/A time=00:19:00.43 bitrate=N/A speed=19.7x    frame=27606 fps=473 q=-0.0 size=N/A time=00:19:11.40 bitrate=N/A speed=19.7x    frame=27876 fps=474 q=-0.0 size=N/A time=00:19:22.66 bitrate=N/A speed=19.8x    frame=28085 fps=473 q=-0.0 size=N/A time=00:19:31.37 bitrate=N/A speed=19.7x    frame=28344 fps=473 q=-0.0 size=N/A time=00:19:42.18 bitrate=N/A speed=19.7x    frame=28609 fps=474 q=-0.0 size=N/A time=00:19:53.23 bitrate=N/A speed=19.8x    frame=28852 fps=474 q=-0.0 size=N/A time=00:20:03.36 bitrate=N/A speed=19.8x    frame=29083 fps=473 q=-0.0 size=N/A time=00:20:13.00 bitrate=N/A speed=19.7x    frame=29326 fps=474 q=-0.0 size=N/A time=00:20:23.13 bitrate=N/A speed=19.7x    frame=29580 fps=474 q=-0.0 size=N/A time=00:20:33.73 bitrate=N/A speed=19.8x    frame=29818 fps=474 q=-0.0 size=N/A time=00:20:43.65 bitrate=N/A speed=19.8x    frame=29980 fps=472 q=-0.0 size=N/A time=00:20:50.41 bitrate=N/A speed=19.7x    frame=30217 fps=472 q=-0.0 size=N/A time=00:21:00.30 bitrate=N/A speed=19.7x    frame=30478 fps=472 q=-0.0 size=N/A time=00:21:11.18 bitrate=N/A speed=19.7x    frame=30739 fps=473 q=-0.0 size=N/A time=00:21:22.07 bitrate=N/A speed=19.7x    frame=30995 fps=473 q=-0.0 size=N/A time=00:21:32.74 bitrate=N/A speed=19.7x    frame=31246 fps=473 q=-0.0 size=N/A time=00:21:43.21 bitrate=N/A speed=19.7x    frame=31428 fps=472 q=-0.0 size=N/A time=00:21:50.80 bitrate=N/A speed=19.7x    frame=31589 fps=471 q=-0.0 size=N/A time=00:21:57.52 bitrate=N/A speed=19.6x    frame=31749 fps=470 q=-0.0 size=N/A time=00:22:04.19 bitrate=N/A speed=19.6x    frame=31922 fps=469 q=-0.0 size=N/A time=00:22:11.41 bitrate=N/A speed=19.5x    frame=32097 fps=468 q=-0.0 size=N/A time=00:22:18.71 bitrate=N/A speed=19.5x    frame=32252 fps=466 q=-0.0 size=N/A time=00:22:25.17 bitrate=N/A speed=19.4x    frame=32419 fps=465 q=-0.0 size=N/A time=00:22:32.14 bitrate=N/A speed=19.4x    frame=32600 fps=464 q=-0.0 size=N/A time=00:22:39.69 bitrate=N/A speed=19.4x    frame=32775 fps=464 q=-0.0 size=N/A time=00:22:46.99 bitrate=N/A speed=19.3x    frame=33003 fps=463 q=-0.0 size=N/A time=00:22:56.50 bitrate=N/A speed=19.3x    frame=33214 fps=463 q=-0.0 size=N/A time=00:23:05.30 bitrate=N/A speed=19.3x    [Parsed_psnr_10 @ 00000227c052e5c0] PSNR y:48.655286 u:51.582806 v:51.605541 average:49.432718 min:37.687346 max:inf
[out#0/null @ 00000227b3cd06c0] video:14363KiB audio:261432KiB subtitle:0KiB other streams:0KiB global headers:0KiB muxing overhead: unknown
frame=33427 fps=463 q=-0.0 Lsize=N/A time=00:23:14.18 bitrate=N/A speed=19.3x    
